# xmcd
#
# Track frame offsets: 
#        150
#        24796
#        48363
#        71060
#        95588
#        122358
#        147942
#        168589
#        191268
#        220786
#        244163
#        278090
#        295192
#        323263
#
# Disc length: 4678 seconds
#
# Revision: 0
# Processed by: cddbd v1.5.2PL0 Copyright (c) Steve Scherf et al.
# Submitted via: ExactAudioCopyFreeDBPlugin 1.0
#
DISCID=bf12440e
DTITLE=D-Train - Miracles Of The Heart
DYEAR=1986
DGENRE=Funk
TTITLE0=You Are Everything
TTITLE1=Oh How I Love You (Girl)
TTITLE2=Miracle Of The Heart
TTITLE3=Misunderstanding
TTITLE4=Let Me Love You
TTITLE5=Ice Melts Into Rain
TTITLE6=I Got Your Number
TTITLE7=Stand Up And Fight
TTITLE8=Oh How I Love You (Girl) (12")
TTITLE9=You Are Everything (Acapella)
TTITLE10=Misunderstanding (12")
TTITLE11=Misunderstanding (Acapella and House Dub)
TTITLE12=Let Me Love You (12")
TTITLE13=Let Me Love You (Dub Mix)
EXTD=
EXTT0=
EXTT1=
EXTT2=
EXTT3=
EXTT4=
EXTT5=
EXTT6=
EXTT7=
EXTT8=
EXTT9=
EXTT10=
EXTT11=
EXTT12=
EXTT13=
PLAYORDER=
